<svg xmlns="http://www.w3.org/2000/svg" width="684.6" height="254.14" viewBox="0 0 684.6 254.14" role="img" aria-labelledby="title desc">
  <title id="title">OpenE2EE product lockup — dark</title>
  <desc id="desc">The horizontal OpenE2EE lockup with the product name on a second line, flush with the left edge of the symbol.</desc>
  <metadata>Lockup: product; mode: dark; symbol height 128; wordmark cap height 71.19; generated by @open-e2ee/design 0.21.2. Set in Public Sans; the wordmark is live text and needs the family available.</metadata>
  <g transform="translate(-12.37 -12.37) scale(0.3333333333333333)">
    <path d="M64 64 H202.24 V98.56 H98.56 V413.44 H202.24 V448 H64 Z" fill="#f4f1eb" fill-rule="evenodd"/>
    <path d="M448 64 H309.76 V98.56 H413.44 V413.44 H309.76 V448 H448 Z" fill="#f4f1eb" fill-rule="evenodd"/>
    <path d="M125.44 125.44 H386.56 V386.56 H125.44 Z M193.3312 250.7776 Q193.3312 245.5552 198.5536 245.5552 H214.2208 V219.4432 A41.7792 41.7792 0 0 1 297.7792 219.4432 V245.5552 H313.4464 Q318.6688 245.5552 318.6688 250.7776 V329.1136 Q318.6688 334.336 313.4464 334.336 H198.5536 Q193.3312 334.336 193.3312 329.1136 Z M235.1104 245.5552 H276.8896 V219.4432 A20.8896 20.8896 0 0 0 235.1104 219.4432 Z" fill="#f4f1eb" fill-rule="evenodd"/>
  </g>
  <text x="184.96" y="121.11" fill="#f4f1eb" font-family="'Public Sans Variable', 'Public Sans', ui-sans-serif, system-ui, -apple-system, BlinkMacSystemFont, 'Segoe UI', sans-serif" font-size="98.46">
    <tspan font-weight="600" letter-spacing="-0.98">Open</tspan><tspan font-weight="800" letter-spacing="-1.48">E2EE</tspan>
  </text>
  <text x="8.96" y="231.45" fill="#a19c95" font-family="'Public Sans Variable', 'Public Sans', ui-sans-serif, system-ui, -apple-system, BlinkMacSystemFont, 'Segoe UI', sans-serif" font-size="61.05" font-weight="500">Signal Protocol SDK</text>
</svg>
